<svg width="66" height="20" version="1.1" viewBox="0 0 66 20" xmlns="http://www.w3.org/2000/svg">
 <path d="m9.4833 0.6229h46.916c5.2535 0 9.4833 4.3211 9.4833 9.6886 0 5.3675-4.2294 9.6886-9.4833 9.6886h-46.916c-5.2535 0-9.4833-4.3211-9.4833-9.6886 0-5.3675 4.2294-9.6886 9.4833-9.6886z" fill="#ff411e" stroke-width="3.7735"/>
 <g transform="matrix(3.9674 0 0 3.9675 -2.7265 -1072.7)" fill="#fff" stroke-width=".07179" aria-label="Новинка">
  <path d="m4.225 273.86h-0.43361v-0.88445h-0.81266v0.88445h-0.43361v-2.0503h0.43361v0.80405h0.81266v-0.80405h0.43361z"/>
  <path d="m6.1335 273.07q0 0.39054-0.20676 0.60304-0.20388 0.2125-0.55709 0.2125-0.21824 0-0.39054-0.0948-0.16942-0.0948-0.26706-0.27567-0.097634-0.18378-0.097634-0.4451 0-0.39054 0.20388-0.60016 0.20388-0.20963 0.55996-0.20963 0.22111 0 0.39054 0.0948t0.26706 0.27568q0.097634 0.17804 0.097634 0.43935zm-1.0826 0q0 0.2326 0.074662 0.35321 0.077533 0.11773 0.24983 0.11773 0.16942 0 0.24409-0.11773 0.077533-0.12061 0.077533-0.35321t-0.077533-0.34746q-0.074662-0.11774-0.24696-0.11774-0.16942 0-0.24696 0.11774-0.074662 0.11486-0.074662 0.34746z"/>
  <path d="m7.877 272.7q0 0.12635-0.080405 0.21537-0.077533 0.089-0.2326 0.11486v0.0115q0.16368 0.0201 0.26132 0.11199 0.10051 0.0919 0.10051 0.23547 0 0.13496-0.07179 0.24121-0.068918 0.10625-0.22111 0.16656-0.15219 0.0603-0.39915 0.0603h-0.74662v-1.5679h0.74662q0.18378 0 0.32736 0.0402 0.14645 0.0373 0.22973 0.12635 0.086148 0.089 0.086148 0.24409zm-0.43361 0.0345q0-0.14358-0.22686-0.14358h-0.30152v0.31014h0.2527q0.13497 0 0.20388-0.0373 0.07179-0.0402 0.07179-0.12923zm0.040202 0.63176q0-0.0919-0.07179-0.1321-0.07179-0.0431-0.21537-0.0431h-0.28142v0.37044h0.29003q0.12061 0 0.19814-0.0431 0.080405-0.0459 0.080405-0.15219z"/>
  <path d="m8.7066 272.29v0.62026q0 0.0488-0.00574 0.12061-0.00287 0.0718-0.00861 0.14645-0.00287 0.0747-0.00861 0.13209-0.00574 0.0574-0.00861 0.0804l0.72364-1.0998h0.51402v1.5679h-0.41353v-0.62601q0-0.0775 0.00574-0.16942 0.00574-0.0948 0.011486-0.17517 0.00861-0.0833 0.011486-0.12635l-0.72077 1.097h-0.51401v-1.5679z"/>
  <path d="m10.791 272.29v0.60303h0.59729v-0.60303h0.42787v1.5679h-0.42787v-0.64611h-0.59729v0.64611h-0.42787v-1.5679z"/>
  <path d="m13.292 272.29h0.47094l-0.62027 0.75236 0.67483 0.81553h-0.4853l-0.64037-0.79543v0.79543h-0.42787v-1.5679h0.42787v0.76097z"/>
  <path d="m14.685 272.26q0.31588 0 0.48243 0.13784 0.16942 0.13496 0.16942 0.41638v1.0453h-0.29865l-0.08328-0.2125h-0.01149q-0.10051 0.12635-0.2125 0.18378-0.11199 0.0574-0.30726 0.0574-0.20963 0-0.34746-0.12061-0.13784-0.12348-0.13784-0.37618 0-0.24983 0.17517-0.36757 0.17517-0.1206 0.5255-0.13209l0.2728-9e-3v-0.0689q0-0.12348-0.06605-0.18091-0.06317-0.0574-0.17804-0.0574-0.11486 0-0.22398 0.0345-0.10912 0.0316-0.21824 0.0804l-0.14071-0.29003q0.12635-0.0661 0.27855-0.10338 0.15507-0.0373 0.32162-0.0373zm0.22686 0.87297-0.16655 6e-3q-0.20676 6e-3 -0.28716 0.0747-0.08041 0.0689-0.08041 0.18091 0 0.0976 0.05743 0.14071 0.05743 0.0402 0.14932 0.0402 0.13784 0 0.2326-0.0804 0.09476-0.0833 0.09476-0.2326z"/>
 </g>
</svg>
